<?xml version="1.0" encoding="UTF-8"?>
<svg width="17px" height="17px" viewBox="0 0 17 17" version="1.1" xmlns="http://www.w3.org/2000/svg" xmlns:xlink="http://www.w3.org/1999/xlink">
    <defs></defs>
    <g id="Landing-page" stroke="none" stroke-width="1" fill="none" fill-rule="evenodd">
        <g id="LP-Features" transform="translate(-811.000000, -1078.000000)" fill-rule="nonzero" fill="#696969">
            <g id="Feature:-Analytics" transform="translate(-135.000000, 241.000000)">
                <g id="Bullets" transform="translate(946.000000, 837.000000)">
                    <path d="M8.46155682,1.88737914e-15 C3.78675,1.88737914e-15 0,3.78675 0,8.46155682 C0,13.1363636 3.78675,16.9231136 8.46155682,16.9231136 C13.1363636,16.9231136 16.9231136,13.1363636 16.9231136,8.46155682 C16.9231136,3.78675 13.1363636,0 8.46155682,0 L8.46155682,1.88737914e-15 Z M11.5524659,5.73730682 C12.3448205,5.71768727 12.7500386,6.68358864 12.1901205,7.24427955 L8.09485909,11.3395409 C7.84356818,11.5908318 7.41872273,11.5908318 7.16743182,11.3395409 L5.10057955,9.23424545 C4.25088864,8.40340909 5.50657045,7.14768864 6.33663409,7.99819091 L7.495725,9.15728182 C7.57269636,9.23425318 7.72738864,9.23425318 7.805125,9.15728182 L10.9729205,5.98948636 C11.107997,5.83403489 11.3208023,5.73744205 11.5524659,5.73744205 L11.5524659,5.73730682 Z" id="check"></path>
                </g>
            </g>
        </g>
    </g>
</svg>