<?xml version="1.0" encoding="UTF-8"?>
<svg width="20px" height="20px" viewBox="0 0 20 20" version="1.1" xmlns="http://www.w3.org/2000/svg" xmlns:xlink="http://www.w3.org/1999/xlink">
    <defs></defs>
    <g id="Symbols" stroke="none" stroke-width="1" fill="none" fill-rule="evenodd">
        <g id="LP/Footer" transform="translate(-605.000000, -50.000000)" fill-rule="nonzero" fill="#59B478">
            <g id="Social-links" transform="translate(520.000000, 50.000000)">
                <path d="M105,11.7170444 L105,19.1111721 L100.713352,19.1111721 L100.713352,12.2122585 C100.713352,10.4791952 100.093335,9.29644725 98.5417107,9.29644725 C97.3572423,9.29644725 96.6523644,10.0935327 96.3422627,10.8645787 C96.2291772,11.1402246 96.2000688,11.5238877 96.2000688,11.9097362 L96.2000688,19.1111721 L91.9119798,19.1111721 C91.9119798,19.1111721 91.9697315,7.42667693 91.9119798,6.21607609 L96.1996503,6.21607609 L96.1996503,8.04390433 C96.190955,8.05757503 96.1796558,8.07231521 96.1714719,8.08556742 L96.1996503,8.08556742 L96.1996503,8.04390433 C96.7693093,7.16651516 97.7866604,5.91313526 100.063808,5.91313526 C102.885041,5.91308876 105,7.75616867 105,11.7170444 Z M87.4264561,0 C85.9595064,0 85,0.962203307 85,2.22753344 C85,3.46528968 85.9317465,4.45669434 87.3695413,4.45669434 L87.3981847,4.45669434 C88.8935452,4.45669434 89.8235248,3.46547567 89.8235248,2.22753344 C89.7953464,0.962203307 88.8935452,0 87.4264561,0 Z M85.2546749,19.1111721 L89.5411365,19.1111721 L89.5411365,6.21607609 L85.2546749,6.21607609 L85.2546749,19.1111721 Z" id="LinkedIn"></path>
            </g>
        </g>
    </g>
</svg>