<?xml version="1.0" encoding="UTF-8"?>
<svg width="20px" height="17px" viewBox="0 0 20 17" version="1.1" xmlns="http://www.w3.org/2000/svg" xmlns:xlink="http://www.w3.org/1999/xlink">
    <defs></defs>
    <g id="Symbols" stroke="none" stroke-width="1" fill="none" fill-rule="evenodd">
        <g id="LP/Footer" transform="translate(-573.000000, -52.000000)" fill-rule="nonzero" fill="#59B478">
            <g id="Social-links" transform="translate(520.000000, 50.000000)">
                <path d="M73,3.92212732 C72.2638877,4.24830433 71.4740498,4.46951384 70.6441792,4.56827217 C71.4915335,4.06085304 72.140162,3.25601512 72.4475808,2.29993513 C71.6527429,2.76983786 70.7753885,3.11104757 69.8405504,3.29601519 C69.0919544,2.49741911 68.0271487,2 66.8461011,2 C64.5802804,2 62.7431205,3.83715986 62.7431205,6.10173873 C62.7431205,6.42291572 62.7793624,6.73660905 62.8493625,7.03657686 C59.4400105,6.86533475 56.4168356,5.23190071 54.3934663,2.74983783 C54.0397729,3.35474078 53.8385635,4.05957853 53.8385635,4.81196538 C53.8385635,6.23546444 54.5634339,7.49147956 55.6632396,8.22631736 C54.9908529,8.20383367 54.3584663,8.01886604 53.8048379,7.71141456 L53.8048379,7.76265647 C53.8048379,9.7497839 55.2195788,11.408218 57.0954642,11.7856696 C56.7517708,11.8781534 56.3893519,11.9293953 56.0144167,11.9293953 C55.7494816,11.9293953 55.493272,11.9031534 55.2420625,11.8531534 C55.764449,13.4841037 57.27919,14.6701187 59.0738661,14.7026351 C57.6703671,15.8024409 55.900691,16.4560694 53.9785637,16.4560694 C53.6473867,16.4560694 53.321177,16.4360693 53,16.3998275 C54.815918,17.5658751 56.9717712,18.2457455 59.2888338,18.2457455 C66.8361664,18.2457455 70.9616633,11.9943954 70.9616633,6.57291597 L70.9479051,6.04177131 C71.7539849,5.46683573 72.451339,4.74448161 73,3.92212732 Z" id="twitter"></path>
            </g>
        </g>
    </g>
</svg>