<?xml version="1.0" encoding="UTF-8"?>
<svg width="14px" height="18px" viewBox="0 0 14 18" version="1.1" xmlns="http://www.w3.org/2000/svg" xmlns:xlink="http://www.w3.org/1999/xlink">
    <defs></defs>
    <g id="Symbols" stroke="none" stroke-width="1" fill="none" fill-rule="evenodd">
        <g id="Design/Dash-panels" transform="translate(-12.000000, -16.000000)" fill-rule="nonzero" fill="#59B478">
            <g id="Filters">
                <g id="Show-filters" transform="translate(0.000000, 8.000000)">
                    <path d="M25.9966152,8.61992272 C25.9966152,8.27767579 25.7189394,8 25.3766925,8 L12.6199227,8 C12.2776758,8 12,8.27767579 12,8.61992272 L12,11.6162159 C12,11.6242877 12.0016143,11.6323595 12.003229,11.642046 C12.0048432,11.6565753 12.0064575,11.6711047 12.0080722,11.6872508 C12.0129151,11.7259959 12.0193726,11.7631252 12.0322876,11.7986426 C12.0355166,11.8115577 12.0387452,11.8244727 12.0435884,11.8373878 C12.0613467,11.8842043 12.0839479,11.9310209 12.1130074,11.971382 C12.1146216,11.9729963 12.1146216,11.9746106 12.1162359,11.9762248 L17.0256106,18.9164664 L17.0256106,24.8606987 C17.0256106,25.0786387 17.1402302,25.2804277 17.3275006,25.3918485 C17.4259774,25.4515801 17.5357574,25.480638 17.6455333,25.480638 C17.745626,25.480638 17.8457188,25.4564221 17.937736,25.4079913 L20.6498979,23.9615049 C20.8516951,23.8533408 20.977618,23.6434722 20.977618,23.4142371 L20.9743894,18.914838 L25.8837641,11.9745965 C25.8853784,11.9729822 25.8853784,11.971368 25.886993,11.9697537 C25.9160517,11.9277808 25.9386533,11.882576 25.956412,11.8357594 C25.9612548,11.8228444 25.9644838,11.8099293 25.9677124,11.7970143 C25.9790131,11.7614977 25.9870849,11.7243676 25.9919282,11.6856224 C25.9935425,11.6710927 25.9951572,11.6565633 25.9967714,11.6420336 C25.9967714,11.6339618 26,11.6258896 26,11.6162035 L25.9966152,8.61992272 Z M13.2398454,9.23984544 L24.7567698,9.23984544 L24.7567698,10.9962932 L13.2398454,10.9962932 L13.2398454,9.23984544 Z M19.8490482,18.359322 C19.7747856,18.4642584 19.7360404,18.5885653 19.7360404,18.7177158 L19.7360404,23.0394038 L18.263724,23.823978 L18.2621097,18.716228 C18.2621097,18.5870774 18.2217503,18.4627705 18.1491019,18.3578342 L13.8179085,12.2363039 L24.1788836,12.2363039 L19.8490482,18.359322 Z" id="filter"></path>
                </g>
            </g>
        </g>
    </g>
</svg>