<?xml version="1.0" encoding="UTF-8"?>
<svg width="13px" height="13px" viewBox="0 0 13 13" version="1.1" xmlns="http://www.w3.org/2000/svg" xmlns:xlink="http://www.w3.org/1999/xlink">
    <defs></defs>
    <g id="Mobile" stroke="none" stroke-width="1" fill="none" fill-rule="evenodd">
        <g id="M-User-dropdown" transform="translate(-20.000000, -262.000000)" fill-rule="nonzero" fill="#999999">
            <g id="User-Dropdown" transform="translate(0.000000, 50.000000)">
                <g id="Links" transform="translate(20.000000, 172.000000)">
                    <path d="M11.6943354,47.7593079 L12.7799997,47.7593079 L12.7799997,45.020689 L11.6943354,45.020689 C10.5941473,45.020689 10.3318115,44.3852644 11.1079433,43.6082495 L11.8768016,42.8402975 L9.93969057,40.9040928 L9.17264489,41.6720448 C8.39470051,42.4499892 7.75839281,42.1858176 7.76020539,41.0874653 C7.76020539,41.0838341 7.75839002,41.0829264 7.75839002,41.0802033 L7.75839002,40 L5.02070064,40 L5.02070064,41.0892894 C5.01706967,42.1858524 4.3834634,42.4481882 3.60644855,41.6711501 L2.83849659,40.9031981 L0.902291854,42.8394029 L1.67024382,43.6073548 C2.4481882,44.3843929 2.18401663,45.0197943 1.08566429,45.0197943 L0,45.0197943 L0,47.7584133 L1.08566429,47.7584133 C2.18403987,47.7584133 2.4481882,48.3938379 1.67115011,49.1717591 L0.903198143,49.939711 L2.83940287,51.876822 L3.60735484,51.1079638 C4.38439293,50.3318552 5.01798177,50.594191 5.02160693,51.6898244 L5.02069924,52.7809265 L7.75838863,52.7809265 L7.75838863,51.7016294 C7.75838863,51.6989062 7.76020399,51.6970908 7.76020399,51.6952752 C7.75748094,50.5959933 8.39472236,50.3336576 9.1726435,51.1088831 L9.94059546,51.8777413 L11.8777065,49.9406303 L11.1088482,49.1726784 C10.3318101,48.394734 10.5941691,47.7593326 11.694334,47.7593326 L11.6943354,47.7593079 Z M6.38952488,48.7868768 C5.0660411,48.7868768 3.99320428,47.7139238 3.99320428,46.3905562 C3.99320428,45.0671886 5.06615729,43.9942356 6.38952488,43.9942356 C7.71300865,43.9942356 8.78584547,45.0671886 8.78584547,46.3905562 C8.78584547,47.7139238 7.71198617,48.7868768 6.38952488,48.7868768 Z" id="icon-settings"></path>
                </g>
            </g>
        </g>
    </g>
</svg>