<?xml version="1.0" encoding="UTF-8"?>
<svg width="16px" height="16px" viewBox="0 0 16 16" version="1.1" xmlns="http://www.w3.org/2000/svg" xmlns:xlink="http://www.w3.org/1999/xlink">
    <defs></defs>
    <g id="Mobile" stroke="none" stroke-width="1" fill="none" fill-rule="evenodd">
        <g id="M-Analytics:-Competitors" transform="translate(-193.000000, -156.000000)" fill-rule="nonzero" fill="#696969">
            <g id="CONTENT" transform="translate(14.000000, 80.000000)">
                <g id="Buttons" transform="translate(0.000000, 67.000000)">
                    <g id="BTN:-Manage" transform="translate(167.000000, 0.000000)">
                        <path d="M12.6522923,24.7680346 C12.7173258,24.7680346 12.7823593,24.7680346 12.8254339,24.7460757 L17.3439204,23.4268108 C17.5821042,23.3617773 17.8194231,23.2325535 17.992569,23.0374486 L27.3119204,13.7180973 C27.5931745,13.4368432 27.7443528,13.0474811 27.7443528,12.6370162 C27.7443528,12.2265514 27.5931701,11.8582919 27.3119204,11.5779027 L25.1717258,9.43770811 C24.588115,8.8540973 23.615142,8.8540973 23.0315312,9.43770811 L13.733369,18.7570595 C13.5602274,18.9302011 13.4310123,19.1675243 13.3440069,19.4057081 L12.024742,23.9241946 C11.9597085,24.1404108 12.024742,24.3996973 12.1978836,24.5728432 C12.3279507,24.7029103 12.5010836,24.7679438 12.6522836,24.7679438 L12.6522923,24.7680346 Z M21.4951031,12.8331157 L23.9385626,15.2765751 L17.5171572,21.6979805 L15.0736977,19.2545211 L21.4951031,12.8331157 Z M23.9815896,10.3466292 C24.0246642,10.3035546 24.0896977,10.2815957 24.1327723,10.2815957 C24.1978058,10.2815957 24.2408804,10.3035546 24.283955,10.3466292 L26.4241496,12.4868238 C26.4672242,12.5518573 26.4891831,12.6168908 26.4891831,12.6380065 C26.4891831,12.6599654 26.4891831,12.7461146 26.4241496,12.7891892 L24.868409,14.3466162 L22.4249496,11.9031568 L23.9815896,10.3466292 Z M14.4038599,20.4006832 L16.3498058,22.3466292 L13.6040761,23.1464562 L14.4038599,20.4006832 Z" id="icon-pencil"></path>
                    </g>
                </g>
            </g>
        </g>
    </g>
</svg>