<?xml version="1.0" encoding="UTF-8"?>
<svg width="18px" height="15px" viewBox="0 0 18 15" version="1.1" xmlns="http://www.w3.org/2000/svg" xmlns:xlink="http://www.w3.org/1999/xlink">
    <defs></defs>
    <g id="Symbols" stroke="none" stroke-width="1" fill="none" fill-rule="evenodd">
        <g id="Design/Feed/Icon-photo" fill-rule="nonzero" fill="#999999">
            <g id="icon-media-photo">
                <path d="M9.10634211,7.02473684 C9.93990789,7.02473684 10.6911474,6.52237105 11.0103395,5.75263421 C11.3295316,4.98289737 11.1528142,4.09658684 10.5634895,3.50725263 C9.97415526,2.91791842 9.08784474,2.74121053 8.31810789,3.06040263 C7.54837105,3.37959474 7.04600526,4.13081053 7.04600526,4.9644 C7.04693037,6.10143158 7.96931053,7.02381316 9.10634211,7.02473684 Z M9.10634211,3.85152632 C9.55688684,3.85152632 9.96304737,4.12259211 10.1351368,4.53798947 C10.3072168,4.95431053 10.2119258,5.43261316 9.89367632,5.75180526 C9.57540789,6.07007368 9.09618158,6.16535526 8.68078421,5.99234211 C8.26446316,5.82026211 7.99339737,5.41411579 7.99339737,4.96449474 C7.99339737,4.66936579 8.11089237,4.38626842 8.31905526,4.17718421 C8.52814184,3.96809763 8.81123684,3.85152632 9.10636579,3.85152632 L9.10634211,3.85152632 Z" id="Shape"></path>
                <path d="M17.8863158,0.0471315789 L0.123157895,0.0471315789 L0.123157895,14.1605526 L17.8863158,14.1605526 L17.8863158,0.0471315789 Z M16.9389474,0.9945 L16.9389474,10.1657368 L12.9476842,7.08678947 L9.37942105,10.0871053 L4.73684211,6.35968421 L1.06105263,9.54971053 L1.06105263,0.994736842 L16.9389474,0.9945 Z M1.07052632,13.2131842 L1.07052632,10.8068684 L4.75365789,7.59292105 L9.39623684,11.3111053 L12.9720789,8.28947368 L16.9391842,11.3684211 L16.9391842,13.2205974 L1.07052632,13.2131842 Z" id="Shape"></path>
            </g>
        </g>
    </g>
</svg>