<?xml version="1.0" encoding="UTF-8"?>
<svg width="18px" height="18px" viewBox="0 0 18 18" version="1.1" xmlns="http://www.w3.org/2000/svg" xmlns:xlink="http://www.w3.org/1999/xlink">
    <defs></defs>
    <g id="Mobile" stroke="none" stroke-width="1" fill="none" fill-rule="evenodd">
        <g id="M-Analytics:-Competitors" transform="translate(-26.000000, -155.000000)" fill-rule="nonzero" fill="#FFFFFF">
            <g id="CONTENT" transform="translate(14.000000, 80.000000)">
                <g id="Buttons" transform="translate(0.000000, 67.000000)">
                    <g id="BTN:-Add-competitor">
                        <path d="M20.8846154,8 C15.9925385,8 12,11.9925385 12,16.8846154 C12,21.7766923 15.9925385,25.7692308 20.8846154,25.7692308 C25.7766923,25.7692308 29.7692308,21.7766923 29.7692308,16.8846154 C29.7692308,11.9925385 25.7766923,8 20.8846154,8 Z M24.8076923,17.5769231 L21.3461538,17.5769231 L21.3461538,20.8076923 C21.3461538,21.1304 21.0919385,21.3846154 20.7692308,21.3846154 C20.4465231,21.3846154 20.1923077,21.1304 20.1923077,20.8076923 L20.1923077,17.5769231 L16.9615385,17.5769231 C16.6388308,17.5769231 16.3846154,17.3227077 16.3846154,17 C16.3846154,16.6772923 16.6388308,16.4230769 16.9615385,16.4230769 L20.1923077,16.4230769 L20.1923077,12.9615385 C20.1923077,12.6388308 20.4465231,12.3846154 20.7692308,12.3846154 C21.0919385,12.3846154 21.3461538,12.6388308 21.3461538,12.9615385 L21.3461538,16.4230769 L24.8076923,16.4230769 C25.1304,16.4230769 25.3846154,16.6772923 25.3846154,17 C25.3846154,17.3227077 25.1304,17.5769231 24.8076923,17.5769231 Z" id="icon-add"></path>
                    </g>
                </g>
            </g>
        </g>
    </g>
</svg>