<?xml version="1.0" encoding="UTF-8"?>
<svg width="23px" height="19px" viewBox="0 0 23 19" version="1.1" xmlns="http://www.w3.org/2000/svg" xmlns:xlink="http://www.w3.org/1999/xlink">
    <defs></defs>
    <g id="Mobile" stroke="none" stroke-width="1" fill="none" fill-rule="evenodd">
        <g id="M-Analytics:-Hashtag" transform="translate(-35.000000, -312.000000)" fill-rule="nonzero" fill="#FFFFFF">
            <g id="CONTENT" transform="translate(15.000000, 80.000000)">
                <g id="Cards-and-Graphs" transform="translate(0.000000, 131.000000)">
                    <g id="Cards">
                        <g id="Lost" transform="translate(0.000000, 79.000000)">
                            <g id="icon-media-photo" transform="translate(20.000000, 22.000000)">
                                <path d="M11.6358816,8.97605263 C12.7009934,8.97605263 13.6609105,8.33414079 14.0687671,7.35058816 C14.4766237,6.36703553 14.2508182,5.23452763 13.4977921,4.48148947 C12.7447539,3.72845132 11.6122461,3.50265789 10.6286934,3.91051447 C9.64514079,4.31837105 9.00322895,5.27825789 9.00322895,6.3434 C9.00441103,7.79627368 10.1830079,8.97487237 11.6358816,8.97605263 Z M11.6358816,4.92139474 C12.2115776,4.92139474 12.7305605,5.26775658 12.9504526,5.79854211 C13.1703326,6.33050789 13.0485718,6.94167237 12.6419197,7.34952895 C12.2352434,7.75620526 11.6228987,7.87795395 11.0921132,7.65688158 C10.5601474,7.43700158 10.2137855,6.91803684 10.2137855,6.34352105 C10.2137855,5.96641184 10.363918,5.60467632 10.6299039,5.33751316 C10.8970701,5.07034697 11.2588026,4.92139474 11.6359118,4.92139474 L11.6358816,4.92139474 Z" id="Shape"></path>
                                <path d="M22.8547368,0.0602236842 L0.157368421,0.0602236842 L0.157368421,18.0940395 L22.8547368,18.0940395 L22.8547368,0.0602236842 Z M21.6442105,1.27075 L21.6442105,12.9895526 L16.5442632,9.05534211 L11.9848158,12.8890789 L6.05263158,8.12626316 L1.35578947,12.2024079 L1.35578947,1.27105263 L21.6442105,1.27075 Z M1.36789474,16.8835132 L1.36789474,13.8087763 L6.07411842,9.70206579 L12.0063026,14.4530789 L16.5754342,10.5921053 L21.6445132,14.5263158 L21.6445132,16.8929855 L1.36789474,16.8835132 Z" id="Shape"></path>
                            </g>
                        </g>
                    </g>
                </g>
            </g>
        </g>
    </g>
</svg>