<?xml version="1.0" encoding="UTF-8"?>
<svg width="9px" height="9px" viewBox="0 0 9 9" version="1.1" xmlns="http://www.w3.org/2000/svg" xmlns:xlink="http://www.w3.org/1999/xlink">
    <defs></defs>
    <g id="Mobile" stroke="none" stroke-width="1" fill="none" fill-rule="evenodd">
        <g id="M-Modal:-Post-details" transform="translate(-359.000000, -11.000000)" fill-rule="nonzero" fill="#DE6868">
            <g id="Modal-components" transform="translate(5.000000, 5.000000)">
                <g id="Modal:-Close" transform="translate(348.000000, 0.000000)">
                    <path d="M6.20445296,14.795631 C6.33045098,14.921629 6.48779825,14.984318 6.64514238,14.984318 C6.8024865,14.984318 6.95983063,14.9216258 7.0858318,14.795631 L10.500042,11.3966832 L13.9142521,14.8108933 C14.0402501,14.9368914 14.1975974,14.9995804 14.3549415,14.9995804 C14.5122857,14.9995804 14.6696298,14.9368882 14.795631,14.8108933 C15.0476333,14.558891 15.0476333,14.1655307 14.795631,13.9141577 L11.3966832,10.4999475 L14.8108933,7.0857374 C15.0628957,6.83373505 15.0628957,6.44037474 14.8108933,6.18900176 C14.558891,5.93699941 14.1655307,5.93699941 13.9141577,6.18900176 L10.4999475,9.60321192 L7.0857374,6.20426414 C6.83373505,5.95226179 6.44037474,5.95226179 6.18900176,6.20426414 C5.93699941,6.45626649 5.93699941,6.8496268 6.18900176,7.10099978 L9.60321192,10.4999475 L6.20426414,13.9141577 C5.95287543,14.1501739 5.95287543,14.5595204 6.20426414,14.7955366 L6.20445296,14.795631 Z" id="icon-close-modal"></path>
                </g>
            </g>
        </g>
    </g>
</svg>