<?xml version="1.0" encoding="UTF-8"?>
<svg width="11px" height="14px" viewBox="0 0 11 14" version="1.1" xmlns="http://www.w3.org/2000/svg" xmlns:xlink="http://www.w3.org/1999/xlink">
    <defs></defs>
    <g id="Mobile" stroke="none" stroke-width="1" fill="none" fill-rule="evenodd">
        <g id="M-User-dropdown" transform="translate(-20.000000, -341.000000)" fill-rule="nonzero" fill="#999999">
            <g id="User-Dropdown" transform="translate(0.000000, 50.000000)">
                <g id="Links" transform="translate(20.000000, 172.000000)">
                    <path d="M10.0833333,124.958333 L9.39583333,124.958333 L9.39583333,123.010417 C9.39583333,120.799325 7.59650833,119 5.38541667,119 C3.174325,119 1.375,120.799325 1.375,123.010417 L1.375,124.958333 L0.916666667,124.958333 C0.410002083,124.958333 0,125.368335 0,125.875 L0,131.833333 C0,132.339998 0.410002083,132.75 0.916666667,132.75 L10.0833333,132.75 C10.5899979,132.75 11,132.339998 11,131.833333 L11,125.875 C11,125.368335 10.5899979,124.958333 10.0833333,124.958333 Z M6.1875,129.770833 C6.1875,130.150379 5.87954583,130.458333 5.5,130.458333 C5.12045417,130.458333 4.8125,130.150379 4.8125,129.770833 L4.8125,127.9375 C4.8125,127.557954 5.12045417,127.25 5.5,127.25 C5.87954583,127.25 6.1875,127.557954 6.1875,127.9375 L6.1875,129.770833 Z M2.75,124.958333 L2.75,123.010417 C2.75,121.557546 3.93254583,120.375 5.38541667,120.375 C6.8382875,120.375 8.02083333,121.557546 8.02083333,123.010417 L8.02083333,124.958333 L2.75,124.958333 Z" id="icon-pass"></path>
                </g>
            </g>
        </g>
    </g>
</svg>