<?xml version="1.0" encoding="UTF-8"?>
<svg width="22px" height="27px" viewBox="0 0 22 27" version="1.1" xmlns="http://www.w3.org/2000/svg" xmlns:xlink="http://www.w3.org/1999/xlink">
    <defs></defs>
    <g id="Mobile" stroke="none" stroke-width="1" fill="none" fill-rule="evenodd">
        <g id="M-Analytics:-Engagement" transform="translate(-28.000000, -418.000000)" fill-rule="nonzero" fill="#FFFFFF">
            <g id="CONTENT" transform="translate(15.000000, 80.000000)">
                <g id="Cards-and-Graphs" transform="translate(0.000000, 82.000000)">
                    <g id="Stats">
                        <g id="comm.-avrg" transform="translate(0.000000, 237.000000)">
                            <g id="icon-avg-comments" transform="translate(13.000000, 19.000000)">
                                <path d="M21.2495573,15 L0.750532529,15 C0.3358543,15 0,15.3358543 0,15.7505325 L0,17.7516324 C0,18.1663106 0.3358543,18.5021649 0.750532529,18.5021649 L10.59848,18.5021649 C10.4952812,18.565959 10.4099078,18.6541471 10.3489189,18.7592193 L6.55398628,25.3845602 C6.42076616,25.6162862 6.42170522,25.9024156 6.55586273,26.1332194 C6.69001952,26.3649454 6.93768565,26.507549 7.20506736,26.507549 L14.7949326,26.507549 C15.0623144,26.507549 15.3099781,26.3649478 15.4441373,26.1332194 C15.5782941,25.9024301 15.5792331,25.6163006 15.4460137,25.3845602 L11.6510811,18.7592193 C11.5900994,18.6541447 11.504726,18.5659566 11.40152,18.5021649 L21.2494675,18.5021649 C21.6641457,18.5021649 22,18.1663106 22,17.7516324 L22,15.7505325 C22,15.5507035 21.9211953,15.3602556 21.7804698,15.2195398 C21.6397444,15.0788143 21.4483622,15.0000096 21.2494771,15.0000096 L21.2495573,15 Z M14.1477183,25.3818463 L7.8526117,25.3818463 L11.0000449,19.8869875 L14.1477183,25.3818463 Z M20.8744111,17.3764862 L1.12591888,17.3764862 L1.12591888,16.1259189 L20.8744111,16.1259189 L20.8744111,17.3764862 Z" id="Shape"></path>
                                <g id="comments" transform="translate(2.000000, 0.000000)">
                                    <path d="M16.1687647,3.85994118 L8.44888235,3.85994118 C7.51102941,3.85994118 6.79447059,4.5765 6.79447059,5.51435294 L6.79447059,9.92647059 C6.79447059,10.8084706 7.51102941,11.5808824 8.44888235,11.5808824 L13.9632353,11.5808824 L16.1687647,13.7864118 L16.1687647,11.5808824 C17.1066176,11.5808824 17.8231765,10.8084706 17.8231765,9.92647059 L17.8231765,5.51435294 C17.8231765,4.57753235 17.1066176,3.85994118 16.1687647,3.85994118 Z" id="Shape"></path>
                                    <path d="M9.55111765,0 L1.83123529,0 C0.893382353,0 0.176823529,0.716558824 0.176823529,1.65441176 L0.176823529,6.06652941 C0.176823529,6.94852941 0.893382353,7.72094118 1.83123529,7.72094118 L1.83123529,9.92647059 L4.03676471,7.72094118 L5.69117647,7.72094118 L5.69117647,5.51541176 C5.69117647,3.97164706 6.90405882,2.75770588 8.44888235,2.75770588 L11.2065882,2.75770588 L11.2065882,1.65441176 C11.205554,0.716558824 10.4889971,0 9.55114412,0 L9.55111765,0 Z" id="Shape"></path>
                                </g>
                            </g>
                        </g>
                    </g>
                </g>
            </g>
        </g>
    </g>
</svg>