<?xml version="1.0" encoding="UTF-8"?>
<svg width="20px" height="20px" viewBox="0 0 20 20" version="1.1" xmlns="http://www.w3.org/2000/svg" xmlns:xlink="http://www.w3.org/1999/xlink">
    <defs></defs>
    <g id="Mobile" stroke="none" stroke-width="1" fill="none" fill-rule="evenodd">
        <g id="M-Nav-expanded" transform="translate(-227.000000, -70.000000)" fill-rule="nonzero" fill="#FFFFFF">
            <g id="Design/Sidebar" transform="translate(0.000000, 50.000000)">
                <g id="Search-&amp;-Trial">
                    <g id="Trial" transform="translate(218.000000, 10.000000)">
                        <g id="icon-info" transform="translate(9.000000, 10.000000)">
                            <path d="M11.2221782,15.3582178 L8.57980198,15.3582178 L8.57980198,8.82356436 L11.2221782,8.82356436 L11.2221782,15.3582178 Z M9.9010099,7.73287129 C9.31546535,7.73287129 8.78792079,7.38015842 8.56360396,6.83946535 C8.33928713,6.298 8.4638198,5.67532673 8.87764356,5.26148515 C9.29146535,4.84766337 9.91415842,4.72390099 10.4548317,4.94821782 C10.9955248,5.17176238 11.3482376,5.70007921 11.3482376,6.28485149 C11.3482376,6.66928713 11.1958554,7.03748515 10.9243564,7.3089901 C10.6528515,7.58049505 10.2846535,7.73287129 9.9009901,7.73287129 L9.9010099,7.73287129 Z" id="Shape"></path>
                            <path d="M16.9027723,3.09722772 C15.0463366,1.2400198 12.5277228,0.197227723 9.90178218,0.197227723 C7.27564356,0.197227723 4.75782178,1.23992079 2.90079208,3.09722772 C1.04435644,4.95366337 0.000792079208,7.47227723 0.000792079208,10.0982178 C0.000792079208,12.7243564 1.04425743,15.2421782 2.90079208,17.0992079 C4.758,18.9556436 7.27584158,19.9992079 9.90178218,19.9992079 C12.5279208,19.9992079 15.0463366,18.9557426 16.9027723,17.0992079 C18.7677228,15.2466337 19.8158416,12.7265347 19.8158416,10.0982178 C19.8158416,7.46990099 18.7677228,4.94970297 16.9027723,3.09722772 L16.9027723,3.09722772 Z M15.8074851,16.0057426 C13.6880792,18.0679208 10.635802,18.8562376 7.78312871,18.0772277 C4.93045545,17.2990693 2.70114851,15.069703 1.92293069,12.2170297 C1.144,9.36435644 1.93221267,6.31207921 3.99441584,4.19267327 C5.56079208,2.62552475 7.68649505,1.74534653 9.90174257,1.74534653 C12.1177822,1.74534653 14.2427327,2.62560396 15.8098614,4.19267327 C17.3762376,5.7590495 18.255802,7.8839604 18.2550099,10.1 C18.2550099,12.3154455 17.3747525,14.4394059 15.8076832,16.0057426 L15.8074851,16.0057426 Z" id="Shape"></path>
                            <path d="M11.3483168,6.28475248 C11.3483168,7.08457426 10.7008911,7.73277228 9.90106931,7.73277228 C9.10124752,7.73277228 8.45382178,7.08457426 8.45382178,6.28475248 C8.45382178,5.48570297 9.10124752,4.83750495 9.90106931,4.83750495 C10.7008911,4.83750495 11.3483168,5.48570297 11.3483168,6.28475248" id="Shape"></path>
                            <polygon id="Shape" points="8.57980198 8.82574257 11.2237624 8.82574257 11.2237624 15.3580198 8.57980198 15.3580198"></polygon>
                        </g>
                    </g>
                </g>
            </g>
        </g>
    </g>
</svg>