<?xml version="1.0" encoding="UTF-8"?>
<svg width="22px" height="26px" viewBox="0 0 22 26" version="1.1" xmlns="http://www.w3.org/2000/svg" xmlns:xlink="http://www.w3.org/1999/xlink">
    <defs></defs>
    <g id="Mobile" stroke="none" stroke-width="1" fill="none" fill-rule="evenodd">
        <g id="M-Analytics:-Engagement" transform="translate(-29.000000, -260.000000)" fill-rule="nonzero" fill="#FFFFFF">
            <g id="CONTENT" transform="translate(15.000000, 80.000000)">
                <g id="Cards-and-Graphs" transform="translate(0.000000, 82.000000)">
                    <g id="Stats">
                        <g id="likes-average" transform="translate(0.000000, 79.000000)">
                            <g id="icon-avg-likes" transform="translate(14.000000, 19.000000)">
                                <path d="M21.2495573,14 L0.750532529,14 C0.3358543,14 0,14.3358543 0,14.7505325 L0,16.7516324 C0,17.1663106 0.3358543,17.5021649 0.750532529,17.5021649 L10.59848,17.5021649 C10.4952812,17.565959 10.4099078,17.6541471 10.3489189,17.7592193 L6.55398628,24.3845602 C6.42076616,24.6162862 6.42170522,24.9024156 6.55586273,25.1332194 C6.69001952,25.3649454 6.93768565,25.507549 7.20506736,25.507549 L14.7949326,25.507549 C15.0623144,25.507549 15.3099781,25.3649478 15.4441373,25.1332194 C15.5782941,24.9024301 15.5792331,24.6163006 15.4460137,24.3845602 L11.6510811,17.7592193 C11.5900994,17.6541447 11.504726,17.5659566 11.40152,17.5021649 L21.2494675,17.5021649 C21.6641457,17.5021649 22,17.1663106 22,16.7516324 L22,14.7505325 C22,14.5507035 21.9211953,14.3602556 21.7804698,14.2195398 C21.6397444,14.0788143 21.4483622,14.0000096 21.2494771,14.0000096 L21.2495573,14 Z M14.1477183,24.3818463 L7.8526117,24.3818463 L11.0000449,18.8869875 L14.1477183,24.3818463 Z M20.8744111,16.3764862 L1.12591888,16.3764862 L1.12591888,15.1259189 L20.8744111,15.1259189 L20.8744111,16.3764862 Z" id="Shape"></path>
                                <path d="M17.5906332,1.69671606 C17.1372424,0.872584833 14.2948992,-1.88710795 10.9999561,2.10838621 C7.53971225,-1.88710795 4.86187896,0.872584833 4.40927906,1.69671606 C3.58514783,3.22060746 4.07946839,5.52770034 5.23341028,6.63992158 L11.000747,12.4072583 L16.7680838,6.63992158 C17.9204636,5.52770034 18.4147842,3.22139837 17.5906727,1.69671606 L17.5906332,1.69671606 Z" id="icon-likes"></path>
                            </g>
                        </g>
                    </g>
                </g>
            </g>
        </g>
    </g>
</svg>