<?xml version="1.0" encoding="UTF-8"?>
<svg width="20px" height="13px" viewBox="0 0 20 13" version="1.1" xmlns="http://www.w3.org/2000/svg" xmlns:xlink="http://www.w3.org/1999/xlink">
    <defs></defs>
    <g id="Mobile" stroke="none" stroke-width="1" fill="none" fill-rule="evenodd">
        <g id="M-Analytics:-Hashtag" transform="translate(-35.000000, -395.000000)" fill-rule="nonzero" fill="#FFFFFF">
            <g id="CONTENT" transform="translate(15.000000, 80.000000)">
                <g id="Cards-and-Graphs" transform="translate(0.000000, 131.000000)">
                    <g id="Cards">
                        <g id="Growth" transform="translate(0.000000, 158.000000)">
                            <path d="M39.2159479,26.9610464 C39.0176952,26.8632262 38.8023159,26.8147642 38.5887405,26.8147642 C38.2859564,26.8147642 37.9858713,26.9116883 37.7362618,27.1001514 L35.0879094,29.1014228 L35.0888105,28.4382227 L35.0843046,28.3502746 C34.9356162,27.0104113 33.8028758,26 32.4484096,26 L22.6529662,26 C21.1904205,26 20,27.1855217 20,28.6420487 L20,35.7066571 C20,37.163184 21.1904205,38.3487057 22.6529662,38.3487057 L32.4474868,38.3487057 C33.8019068,38.3487057 34.934585,37.3382025 35.0833818,35.9984311 L35.0842829,35.2445972 L37.7363263,37.2485796 C38.1625773,37.5707488 38.7365869,37.6246006 39.2160125,37.3876824 C39.6954381,37.1507641 39.9990989,36.6634624 39.9990989,36.1294699 L40,28.2194059 C40,27.6854364 39.6963161,27.1981277 39.2160139,26.9611934 L39.2159479,26.9610464 Z M33.4737755,35.8599258 C33.3989803,36.3642814 32.9646367,36.7403023 32.4482772,36.7403023 L22.6528338,36.7403023 C22.0806005,36.7403023 21.6147166,36.2763356 21.6147166,35.7064572 L21.6147166,28.6418488 C21.6147166,28.0719704 22.0806005,27.6080037 22.6528338,27.6080037 L32.4473544,27.6080037 C32.9637139,27.6080037 33.3989619,27.9840246 33.4728528,28.4883802 L33.4737755,35.8599258 Z" id="icon-video"></path>
                        </g>
                    </g>
                </g>
            </g>
        </g>
    </g>
</svg>