<?xml version="1.0" encoding="UTF-8"?>
<svg width="18px" height="20px" viewBox="0 0 18 20" version="1.1" xmlns="http://www.w3.org/2000/svg" xmlns:xlink="http://www.w3.org/1999/xlink">
    <defs></defs>
    <g id="Mobile" stroke="none" stroke-width="1" fill="none" fill-rule="evenodd">
        <g id="M-Analytics:-Overview" transform="translate(-33.000000, -2469.000000)" fill="#FFFFFF">
            <g id="CONTENT" transform="translate(15.000000, 80.000000)">
                <g id="Cards-and-Graphs" transform="translate(0.000000, 86.000000)">
                    <g id="Cards-row-1" transform="translate(0.000000, 2124.000000)">
                        <g id="Growth" transform="translate(0.000000, 158.000000)">
                            <g id="icon-follower-growth" transform="translate(18.000000, 21.000000)">
                                <g id="np_user_1175005_000000" fill-rule="nonzero">
                                    <path d="M14.9680549,17.62292 C15.461369,17.5787908 15.9477522,17.529586 16.4262375,17.4756375 C17.3439563,17.4001987 18.0002063,16.5374062 17.850075,15.6189562 L17.8498125,15.6189375 C17.3246625,12.581625 15.5060625,10.03125 13.012125,8.7005625 C11.961825,9.6754125 10.5555,10.2569625 9,10.2569625 C7.46265,10.2569625 6.0564375,9.6754125 4.987875,8.7005625 C2.4939375,10.0321125 0.675375,12.581625 0.1501875,15.6189375 C4.125e-05,16.5373875 0.6562875,17.3811375 1.5754875,17.4939375 C2.05452289,17.547969 2.54074811,17.5964653 3.03366929,17.6394131 C3.01141316,17.4293212 3,17.2159935 3,17 C3,13.6862915 5.6862915,11 9,11 C12.3137085,11 15,13.6862915 15,17 C15,17.2103436 14.9891761,17.4181591 14.9680549,17.62292 Z" id="Combined-Shape"></path>
                                    <path d="M13.21875,4.3125 C13.21875,6.642375 11.329875,8.53125 9,8.53125 C6.670125,8.53125 4.78125,6.642375 4.78125,4.3125 C4.78125,1.982625 6.670125,0.09375 9,0.09375 C11.329875,0.09375 13.21875,1.982625 13.21875,4.3125" id="Shape"></path>
                                </g>
                                <g id="Group" transform="translate(4.000000, 14.000000)">
                                    <path d="M4.4408921e-16,3.41924588 L3.93339244,-8.8817842e-16 L4.78820391,0.98334811 L0.854811471,4.40259399 L4.4408921e-16,3.41924588 Z M5.21179609,4.7221949 L9.14518853,1.30294902 L10,2.28629713 L6.06660756,5.70554301 L5.21179609,4.7221949 Z M4.87712689,1.45462338 L6.62081303,3.39118303 L5.65253321,4.2630261 L3.90884707,2.32646645 L4.87712689,1.45462338 Z" id="Combined-Shape"></path>
                                </g>
                            </g>
                        </g>
                    </g>
                </g>
            </g>
        </g>
    </g>
</svg>