<?xml version="1.0" encoding="UTF-8"?>
<svg width="23px" height="27px" viewBox="0 0 23 27" version="1.1" xmlns="http://www.w3.org/2000/svg" xmlns:xlink="http://www.w3.org/1999/xlink">
    <defs></defs>
    <g id="Mobile" stroke="none" stroke-width="1" fill="none" fill-rule="evenodd">
        <g id="M-Analytics:-Overview" transform="translate(-27.000000, -264.000000)" fill-rule="nonzero" fill="#59B478">
            <g id="CONTENT" transform="translate(15.000000, 80.000000)">
                <g id="Cards-and-Graphs" transform="translate(0.000000, 86.000000)">
                    <g id="Stats">
                        <g id="followings" transform="translate(0.000000, 80.000000)">
                            <g id="icon-followings" transform="translate(12.000000, 18.000000)">
                                <path d="M13.6122558,19.255814 C13.3176419,19.4166963 12.9708233,19.5765302 12.6229349,19.6841488 C11.9543302,19.9244293 11.2324512,20.0581395 10.5105721,20.0581395 C9.78869302,20.0581395 9.09291628,19.95158 8.42431163,19.7102512 C7.03382791,19.2286419 5.96406047,18.3730419 5.16178837,17.3837209 C4.06484884,17.9990512 2.05892791,19.122093 -0.000106976744,20.6462442 C2.37969767,23.9087674 6.20427674,26.0483023 10.5638465,26.0483023 C11.9282279,26.0483023 13.2655442,25.8341402 14.4949744,25.4329721 C13.6122023,24.4436512 13.0512163,23.1325442 13.0512163,21.7160651 C13.0512163,20.833293 13.2653784,20.0048651 13.6122291,19.255814 L13.6122558,19.255814 Z" id="Shape"></path>
                                <path d="M18.6404302,17.3564419 C16.2334535,17.3564419 14.2808605,19.3089814 14.2808605,21.7160116 C14.2808605,24.1230419 16.2334,26.0755814 18.6404302,26.0755814 C21.0474605,26.0755814 23,24.1230419 23,21.7160116 C23,19.3089814 21.0474605,17.3564419 18.6404302,17.3564419 Z M18.8274309,24.2034884 L18.0251053,23.4011628 L19.1220449,22.3042233 L16.0996844,22.3042233 L16.0996844,21.1540093 L19.1220449,21.1540093 L18.0251053,20.0581128 L18.8274309,19.2557872 L21.3148542,21.7432105 L18.8274309,24.2034884 Z" id="Shape"></path>
                                <path d="M14.9494651,2.54069767 C14.9223037,2.54069767 14.9223037,2.51353628 14.8961853,2.51353628 C14.5754691,1.20349907 12.703376,-0.160882326 10.9377784,0.187006047 C9.17223419,0.560996744 5.53572023,0.133726279 5.53572023,0.133726279 C5.48244047,0.908879767 6.15105047,1.44376349 6.15105047,1.44376349 C3.07546907,3.31585651 3.63752488,7.32748442 3.93106907,8.77113558 C3.90390767,8.79829698 3.8777893,8.82441535 3.85062791,8.87769512 C3.20919535,9.73329512 3.44946512,10.9639556 3.68974558,11.7922765 C3.85062791,12.3271602 4.11808047,13.3436533 4.75951302,13.9318114 C5.24112233,15.6973556 6.63160605,17.7564974 8.87758279,18.558823 C9.41246651,18.7458237 9.97452233,18.853437 10.5626805,18.853437 C11.1247363,18.853437 11.6857223,18.7468774 12.220606,18.558823 C14.4666898,17.7564974 15.8583502,15.7234044 16.3386758,13.9318114 C16.9801084,13.3436533 17.2475502,12.3271602 17.4084433,11.7922765 C17.6487237,10.9366765 17.8900526,9.73318814 17.2475609,8.87769512 C17.2203995,8.85053372 17.1942812,8.82441535 17.1671198,8.77113558 C17.2203995,8.47652163 17.2475609,8.18297744 17.2736793,7.91553558 C18.0519886,2.8614193 15.2709944,2.56776814 14.9492351,2.54048907 L14.9494651,2.54069767 Z M16.2072709,11.4195 C15.8332802,12.7295372 15.4853919,13.1045977 15.21795,13.1045977 C14.9776695,14.6559744 13.7741919,16.6345628 11.7944267,17.3304465 C11.393264,17.4641674 10.9649291,17.5446086 10.537664,17.5446086 C10.1093291,17.5446086 9.68206395,17.4641674 9.28090116,17.3304465 C7.32836163,16.6346698 6.09887791,14.6560279 5.85737791,13.1045977 C5.58993605,13.0774363 5.24204767,12.7034349 4.86805698,11.4195 C4.38644767,9.73440233 4.84089558,9.41368605 5.26921977,9.41368605 L5.34966093,9.41368605 L5.34966093,9.38652465 C5.26921977,9.11908279 4.89522372,7.59487814 6.23243302,6.65888512 C7.30220047,6.89916558 8.9341307,6.95349907 11.1268865,6.01745256 C15.3254563,4.22580605 15.7006772,9.41369674 15.7006772,9.41369674 L15.7811184,9.41369674 C16.2334695,9.41369674 16.6879067,9.76158512 16.2073672,11.4195107 L16.2072709,11.4195 Z" id="Shape"></path>
                            </g>
                        </g>
                    </g>
                </g>
            </g>
        </g>
    </g>
</svg>