<?xml version="1.0" encoding="UTF-8"?>
<svg width="18px" height="17px" viewBox="0 0 18 17" version="1.1" xmlns="http://www.w3.org/2000/svg" xmlns:xlink="http://www.w3.org/1999/xlink">
    <defs></defs>
    <g id="Mobile" stroke="none" stroke-width="1" fill="none" fill-rule="evenodd">
        <g id="M-Search-results" transform="translate(-16.000000, -646.000000)" fill-rule="nonzero" fill="#59B478">
            <g id="Col---Hashtags" transform="translate(15.000000, 645.000000)">
                <g id="heading" transform="translate(1.000000, 0.000000)">
                    <path d="M16.3322159,7.38852273 C16.9042079,7.38852273 17.3668011,6.92519545 17.3668011,6.3539375 C17.3668011,5.78269886 16.9034738,5.31935227 16.3322159,5.31935227 L13.5884545,5.31935227 L14.1159375,2.32947727 C14.2155459,1.76652614 13.838992,1.23000227 13.2760409,1.13039773 C12.7130897,1.03078932 12.1765659,1.40734318 12.0769613,1.97029432 L11.4860954,5.31852159 L7.33712951,5.31852159 L7.86461246,2.32864659 C7.96346746,1.76569545 7.58766701,1.22917159 7.02471587,1.12956705 C6.46176473,1.02995864 5.92524087,1.4065125 5.82563633,1.96946364 L5.23477042,5.31923636 L2.18829314,5.3184818 C1.61705451,5.3184818 1.15370792,5.78180907 1.15370792,6.35306702 C1.15370792,6.92430566 1.61703519,7.38765225 2.18829314,7.38765225 L4.87023633,7.38765225 L4.26202269,10.8369136 L1.49778405,10.8376682 C0.926545416,10.8376682 0.463198825,11.3009955 0.463198825,11.8722534 C0.463198825,12.4435114 0.926526098,12.9068386 1.49778405,12.9068386 L3.89671587,12.9068386 L3.36923292,15.8972932 C3.27037792,16.4602443 3.64617837,16.9967682 4.20912951,17.0956193 C4.77208064,17.1952297 5.30860451,16.8186739 5.40820905,16.2557227 L5.99907496,12.90595 L10.1486204,12.90595 L9.62113746,15.8964045 C9.52152905,16.4593557 9.89808292,16.9958795 10.4610341,17.0947307 C11.0239852,17.1943391 11.5605091,16.8177852 11.6601136,16.2548341 L12.2509795,12.9050614 L15.6430591,12.9050614 C16.2150511,12.9050614 16.6776443,12.4417341 16.6776443,11.8704761 C16.6776443,11.2984841 16.214317,10.8358909 15.6430591,10.8358909 L12.6155136,10.8358909 L13.2237272,7.38662955 L16.3322159,7.38852273 Z M10.5133863,10.8385568 L6.36384087,10.8385568 L6.97205451,7.38929545 L11.1216,7.38929545 L10.5133863,10.8385568 Z" id="icon-hashtag"></path>
                </g>
            </g>
        </g>
    </g>
</svg>