<?xml version="1.0" encoding="UTF-8"?>
<svg width="18px" height="18px" viewBox="0 0 18 18" version="1.1" xmlns="http://www.w3.org/2000/svg" xmlns:xlink="http://www.w3.org/1999/xlink">
    <defs></defs>
    <g id="Mobile" stroke="none" stroke-width="1" fill="none" fill-rule="evenodd">
        <g id="M-Analytics:-Overview" transform="translate(-33.000000, -2390.000000)" fill="#FFFFFF">
            <g id="CONTENT" transform="translate(15.000000, 80.000000)">
                <g id="Cards-and-Graphs" transform="translate(0.000000, 86.000000)">
                    <g id="Cards-row-1" transform="translate(0.000000, 2124.000000)">
                        <g id="Lost" transform="translate(0.000000, 79.000000)">
                            <g id="icon-lost-followers" transform="translate(18.000000, 21.000000)">
                                <path d="M14.9680549,17.62292 C15.461369,17.5787908 15.9477522,17.529586 16.4262375,17.4756375 C17.3439562,17.4001987 18.0002062,16.5374062 17.850075,15.6189562 L17.8498125,15.6189375 C17.3246625,12.581625 15.5060625,10.03125 13.012125,8.7005625 C11.961825,9.6754125 10.5555,10.2569625 9,10.2569625 C7.46265,10.2569625 6.0564375,9.6754125 4.987875,8.7005625 C2.4939375,10.0321125 0.675375,12.581625 0.1501875,15.6189375 C4.12499999e-05,16.5373875 0.6562875,17.3811375 1.5754875,17.4939375 C2.05452289,17.547969 2.54074811,17.5964653 3.03366929,17.6394131 C3.01141316,17.4293212 3,17.2159935 3,17 C3,13.6862915 5.6862915,11 9,11 C12.3137085,11 15,13.6862915 15,17 C15,17.2103436 14.9891761,17.4181591 14.9680549,17.62292 Z" id="Combined-Shape" fill-rule="nonzero"></path>
                                <path d="M13.21875,4.3125 C13.21875,6.642375 11.329875,8.53125 9,8.53125 C6.670125,8.53125 4.78125,6.642375 4.78125,4.3125 C4.78125,1.982625 6.670125,0.09375 9,0.09375 C11.329875,0.09375 13.21875,1.982625 13.21875,4.3125" id="Shape" fill-rule="nonzero"></path>
                                <rect id="Rectangle" x="6" y="16" width="6" height="2"></rect>
                            </g>
                        </g>
                    </g>
                </g>
            </g>
        </g>
    </g>
</svg>