<?xml version="1.0" encoding="UTF-8"?>
<svg width="17px" height="11px" viewBox="0 0 17 11" version="1.1" xmlns="http://www.w3.org/2000/svg" xmlns:xlink="http://www.w3.org/1999/xlink">
    <defs></defs>
    <g id="Mobile" stroke="none" stroke-width="1" fill="none" fill-rule="evenodd">
        <g id="M-Search-results" transform="translate(-138.000000, -563.000000)" fill-rule="nonzero" fill="#FFF">
            <g id="Col---users" transform="translate(15.000000, 165.000000)">
                <g id="BTN:-More-stats" transform="translate(111.000000, 386.000000)">
                    <g id="icon-view" transform="translate(12.000000, 12.000000)">
                        <path d="M8.5,0.0193611111 C3.58133333,0.0193611111 0.137416667,5.43055556 0.137416667,5.43055556 C0.137416667,5.43055556 2.64609722,10.84175 8.5,10.84175 C14.4027778,10.84175 16.8625833,5.43055556 16.8625833,5.43055556 C16.8625833,5.43055556 13.4684861,0.0193611111 8.5,0.0193611111 L8.5,0.0193611111 Z M8.5,8.87352778 C6.58159722,8.87352778 5.05702778,7.34895833 5.05702778,5.43055556 C5.05702778,3.51215278 6.58159722,1.98758333 8.5,1.98758333 C10.4184028,1.98758333 11.9429722,3.51215278 11.9429722,5.43055556 C11.9429722,7.34895833 10.4184028,8.87352778 8.5,8.87352778 L8.5,8.87352778 Z" id="Shape"></path>
                        <path d="M9.97569444,5.43055556 C9.97569444,6.24587083 9.31531528,6.90625 8.5,6.90625 C7.68468472,6.90625 7.02430556,6.24587083 7.02430556,5.43055556 C7.02430556,4.61524028 7.68468472,3.95486111 8.5,3.95486111 C9.31531528,3.95486111 9.97569444,4.61524028 9.97569444,5.43055556" id="Shape"></path>
                    </g>
                </g>
            </g>
        </g>
    </g>
</svg>