<?xml version="1.0" encoding="UTF-8"?>
<svg width="15px" height="14px" viewBox="0 0 15 14" version="1.1" xmlns="http://www.w3.org/2000/svg" xmlns:xlink="http://www.w3.org/1999/xlink">
    <defs></defs>
    <g id="Mobile" stroke="none" stroke-width="1" fill="none" fill-rule="evenodd">
        <g id="M-Analytics:-Competitor" transform="translate(-28.000000, -149.000000)" fill-rule="nonzero" fill="#DE6868">
            <g id="CONTENT" transform="translate(15.000000, 80.000000)">
                <g id="BTN:-Remove" transform="translate(0.000000, 59.000000)">
                    <path d="M22.1416453,14.0318082 L20.0958904,16.0506849 L18.0501355,14.0318082 L17.0879716,14.9809699 L19.1337266,16.9998466 L17.087194,19.0179562 L18.0493579,19.9671178 L20.0958904,17.9490082 L22.1416453,19.9671178 L23.1038092,19.0179562 L21.0580543,16.9998466 L23.1038092,14.981737 L22.1416453,14.0318082 Z M20.0958904,10 C16.1834303,10 13,13.140411 13,17 C13,20.859589 16.1834303,24 20.0958904,24 C24.0083505,24 27.1917808,20.859589 27.1917808,17 C27.1917808,13.140411 24.0083505,10 20.0958904,10 L20.0958904,10 Z M20.0958904,22.6575342 C16.9336506,22.6575342 14.3608557,20.1195068 14.3608557,17 C14.3608557,13.8804932 16.9336506,11.3424658 20.0958904,11.3424658 C23.2581302,11.3424658 25.8309251,13.8804932 25.8309251,17 C25.8309251,20.1195068 23.2581302,22.6575342 20.0958904,22.6575342 Z" id="icon-remove"></path>
                </g>
            </g>
        </g>
    </g>
</svg>