<?xml version="1.0" encoding="UTF-8"?>
<svg width="27px" height="21px" viewBox="0 0 27 21" version="1.1" xmlns="http://www.w3.org/2000/svg" xmlns:xlink="http://www.w3.org/1999/xlink">
    <defs></defs>
    <g id="Mobile" stroke="none" stroke-width="1" fill="none" fill-rule="evenodd">
        <g id="M-Analytics:-Overview" transform="translate(-27.000000, -187.000000)" fill-rule="nonzero" fill="#FFF">
            <g id="CONTENT" transform="translate(15.000000, 80.000000)">
                <g id="Cards-and-Graphs" transform="translate(0.000000, 86.000000)">
                    <g id="Stats">
                        <g id="followers">
                            <g id="icon-followers" transform="translate(12.000000, 21.000000)">
                                <path d="M10.0805114,9.79547727 C9.93908659,9.79068324 9.80006114,9.8350292 9.68741591,9.92132182 C8.29354091,10.9892025 7.38867273,12.6755059 7.38867273,14.5594923 L7.38867273,19.3955605 C7.38867273,19.7335514 7.6631308,20.0091968 8.0011125,20.0091968 L18.9987034,20.0091968 C19.3366943,20.0091968 19.6111432,19.7335391 19.6111432,19.3955605 L19.6111432,14.5594923 C19.6111432,12.6754445 18.7050784,10.9890491 17.3088102,9.92132182 C17.109857,9.76911239 16.8390102,9.75352909 16.6244523,9.8805733 C15.7099807,10.4210949 14.6445239,10.7315028 13.4998159,10.7315028 C12.3564273,10.7315028 11.2897739,10.4222915 10.3718045,9.8805733 C10.2831157,9.82783739 10.1836391,9.79907625 10.0805666,9.79548034 L10.0805114,9.79547727 Z M10.1320476,11.1473795 C11.1435965,11.6651352 12.2893476,11.9575636 13.4999908,11.9575636 C14.710634,11.9575636 15.8562624,11.6651291 16.8654794,11.1473795 C17.7979306,11.9935227 18.383984,13.2088295 18.383984,14.5595045 L18.383984,18.7819364 L8.61489307,18.7819364 L8.61489307,14.5595045 C8.61489307,13.2087989 9.20097716,11.993492 10.132201,11.1473795 L10.1320476,11.1473795 Z" id="Shape"></path>
                                <path d="M13.5,0.240852273 C11.1221591,0.240852273 9.18061364,2.17883864 9.18061364,4.55778409 C9.18061364,6.935625 11.1233864,8.87471591 13.5,8.87471591 C15.8778409,8.87471591 17.8169318,6.93553295 17.8169318,4.55778409 C17.8169318,2.18003523 15.8777489,0.240852273 13.5,0.240852273 L13.5,0.240852273 Z M13.5,1.468125 C15.2150523,1.468125 16.5896591,2.84282386 16.5896591,4.55778409 C16.5896591,6.27283636 15.2149602,7.64744318 13.5,7.64744318 C11.7850398,7.64744318 10.4066591,6.27274432 10.4066591,4.55778409 C10.4066591,2.84273182 11.7837511,1.468125 13.5,1.468125 L13.5,1.468125 Z" id="Shape"></path>
                                <path d="M19.4660795,8.91214773 C19.3246548,8.90735369 19.1868259,8.95169966 19.0753773,9.03559295 C18.8824162,9.18181023 18.7074409,9.34001489 18.5444284,9.50662023 C18.4281719,9.6228767 18.3622551,9.77987864 18.3622551,9.94408159 C18.3634535,10.109475 18.4293716,10.2664861 18.5468247,10.381543 C18.6642777,10.4965998 18.8224824,10.5589207 18.9878758,10.5565244 C19.1520726,10.5529288 19.3078872,10.4846124 19.4217474,10.3647631 C19.4553072,10.3300067 19.4900635,10.2964469 19.5248199,10.2628902 C20.3074517,10.646413 21.189554,10.8621368 22.1159915,10.8621368 C23.0448222,10.8621368 23.9245312,10.6464068 24.7059665,10.2628902 C25.3639381,10.8909164 25.7726506,11.7706255 25.7726506,12.7462152 L25.7726506,15.888647 L20.8792074,15.888647 C20.713814,15.8850518 20.5556062,15.9485717 20.4381562,16.0636285 C20.3207032,16.179885 20.2547833,16.3368869 20.2547833,16.5022865 C20.2547833,16.6664833 20.3207001,16.824691 20.4381562,16.9397478 C20.5556093,17.0548047 20.713814,17.1183252 20.8792074,17.115929 L26.3862869,17.115929 C26.7254744,17.115929 26.9999233,16.8402713 26.9999233,16.5022926 L26.9999233,12.7474517 C26.9999233,11.2409131 26.2748199,9.89140398 25.156621,9.03801989 L25.156621,9.03682145 C24.9588675,8.88580861 24.6880176,8.86902873 24.4734597,8.99607293 C23.7819222,9.40236157 22.9801142,9.63606498 22.1147949,9.63606498 C21.2530653,9.63606498 20.4476676,9.40235543 19.7561301,8.99607293 L19.7573285,8.99607293 C19.6686397,8.94334009 19.5679634,8.91457589 19.4660906,8.91217657 L19.4660795,8.91214773 Z" id="Shape"></path>
                                <path d="M22.1148409,1.48960227 C20.1936375,1.48960227 18.6235568,3.05965227 18.6235568,4.98088636 C18.6235568,6.89969659 20.1936068,8.46971591 22.1148409,8.46971591 C24.036075,8.46971591 25.606125,6.89966591 25.606125,4.98088636 C25.606125,3.05968295 24.036075,1.48960227 22.1148409,1.48960227 L22.1148409,1.48960227 Z M22.1148409,2.716875 C23.3720898,2.716875 24.3788216,3.72360682 24.3788216,4.98085568 C24.3788216,6.23448409 23.3720898,7.24244318 22.1148409,7.24244318 C20.857592,7.24244318 19.8508602,6.23448409 19.8508602,4.98085568 C19.8508602,3.72360682 20.857592,2.716875 22.1148409,2.716875 L22.1148409,2.716875 Z" id="Shape"></path>
                                <path d="M2.23148864,8.91214773 C2.09006386,8.90735369 1.95103841,8.95169966 1.83839318,9.03799227 C0.723784091,9.891315 -0.000122727273,11.2408548 -0.000122727273,12.7461968 L-0.000122727273,16.502265 C-0.000122727273,16.8402559 0.274335341,17.1159014 0.613513636,17.1159014 L6.11813864,17.1159014 C6.28233545,17.1182985 6.44054318,17.054777 6.55799318,16.9397202 C6.67544318,16.8246634 6.74256273,16.6664587 6.74256273,16.5022589 C6.74256273,16.3368655 6.67544625,16.1798543 6.55799318,16.0636009 C6.44054011,15.9485441 6.28233545,15.8850235 6.11813864,15.8886194 L1.22715,15.8886194 L1.22715,12.7461876 C1.22715,11.7705978 1.63583182,10.8908888 2.29144091,10.2628626 C3.07407273,10.6463853 3.95497841,10.8621092 4.88141591,10.8621092 C5.81024659,10.8621092 6.68995568,10.6463792 7.4725875,10.2628626 C7.50734386,10.2964224 7.54210023,10.3299791 7.57566,10.3647355 C7.68832057,10.4845848 7.84532557,10.5529009 8.00953159,10.5564968 C8.17372841,10.5588937 8.33193614,10.4965722 8.44938614,10.3815153 C8.5668392,10.2664585 8.63395568,10.1094535 8.63395568,9.94405398 C8.63515411,9.77985716 8.56923545,9.62284602 8.45298205,9.50659261 C8.29118455,9.3411992 8.11499114,9.18179489 7.92203318,9.03556534 C7.72308,8.88575216 7.45462636,8.87017193 7.24006841,8.99601341 C6.54853091,9.40230205 5.74672295,9.63600545 4.88140364,9.63600545 C4.01967409,9.63600545 3.21427636,9.40229591 2.52273886,8.99601341 C2.43405,8.94328057 2.33457341,8.91451636 2.23150091,8.91211705 L2.23148864,8.91214773 Z" id="Shape"></path>
                                <path d="M4.88147727,1.48960227 C2.96027386,1.48960227 1.39264773,3.06084886 1.39264773,4.98088636 C1.39264773,6.8985 2.96030455,8.46971591 4.88147727,8.46971591 C6.80268068,8.46971591 8.37276136,6.89966591 8.37276136,4.98088636 C8.37276136,3.05968295 6.80271136,1.48960227 4.88147727,1.48960227 L4.88147727,1.48960227 Z M4.88147727,2.716875 C6.13872614,2.716875 7.14545795,3.72360682 7.14545795,4.98085568 C7.14545795,6.23448409 6.13872614,7.24244318 4.88147727,7.24244318 C3.62422841,7.24244318 2.61988977,6.23571136 2.61988977,4.98085568 C2.61988977,3.72241023 3.62303182,2.716875 4.88147727,2.716875 L4.88147727,2.716875 Z" id="Shape"></path>
                            </g>
                        </g>
                    </g>
                </g>
            </g>
        </g>
    </g>
</svg>