<?xml version="1.0" encoding="UTF-8"?>
<svg width="13px" height="13px" viewBox="0 0 13 13" version="1.1" xmlns="http://www.w3.org/2000/svg" xmlns:xlink="http://www.w3.org/1999/xlink">
    <defs></defs>
    <g id="Mobile" stroke="none" stroke-width="1" fill="none" fill-rule="evenodd">
        <g id="M-User-dropdown" transform="translate(-20.000000, -293.000000)" fill-rule="nonzero" fill="#999999">
            <g id="User-Dropdown" transform="translate(0.000000, 50.000000)">
                <g id="Links" transform="translate(20.000000, 172.000000)">
                    <path d="M10.9792596,72.8837942 C9.7733483,71.6773813 8.13729649,71 6.43152692,71 C4.72562872,71 3.09009142,71.677317 1.88379423,72.8837942 C0.677882937,74.0897055 0,75.7257573 0,77.4315269 C0,79.1374251 0.677818622,80.7729624 1.88379423,81.9792596 C3.09020719,83.1851709 4.72575735,83.8630538 6.43152692,83.8630538 C8.13742512,83.8630538 9.7733483,83.1852352 10.9792596,81.9792596 C12.1896987,80.7748533 12.8699999,79.1383255 12.8699999,77.4315269 C12.8699999,75.7242138 12.1896601,74.0876474 10.9792596,72.8837942 L10.9792596,72.8837942 Z M6.33299593,81.4402976 C5.93605495,81.4402976 5.57779317,81.201122 5.42554607,80.8338304 C5.27329896,80.4670275 5.35721109,80.0444634 5.63808231,79.7630841 C5.91845829,79.4817048 6.34102247,79.3977991 6.70832697,79.54903 C7.07563148,79.7007754 7.31530876,80.0590243 7.31581042,80.4564798 C7.31581042,80.9991464 6.87615124,81.439796 6.33299593,81.4402976 L6.33299593,81.4402976 Z M8.95680165,76.5523372 C8.80254791,76.8095983 8.47594211,77.1412207 7.98805934,77.524604 C7.62678761,77.8100094 7.40419246,78.0391261 7.30771956,78.2139865 L7.30822199,78.2139865 C7.21375958,78.4024045 7.16351263,78.6094225 7.161506,78.8199521 L5.3772718,78.8199521 L5.3772718,78.708405 C5.36923239,78.4431045 5.40641433,78.1788073 5.48680842,77.926074 C5.55866015,77.7270955 5.66718702,77.543694 5.80687979,77.3844237 C6.11991507,77.063349 6.45354409,76.7623793 6.80527144,76.4840099 C7.10876233,76.2367949 7.25547832,76.0106881 7.25547832,75.7906142 C7.26552758,75.6021961 7.19417815,75.4182931 7.06002422,75.2851347 C6.90074102,75.1544976 6.69724751,75.089179 6.49123284,75.1037399 C6.24000454,75.0967054 5.9973173,75.1941826 5.82145363,75.3740699 C5.65815716,75.5388713 5.55264153,75.8036702 5.49987728,76.1830402 L3.67448131,75.9579368 C3.72924962,75.3389023 4.00259209,74.7590616 4.44626454,74.322914 C4.89245815,73.8933137 5.59238836,73.6797613 6.52647761,73.6797613 C7.25605716,73.6797613 7.84892817,73.8330117 8.2925749,74.1339814 C8.8985405,74.542988 9.19298867,75.0730873 9.19298867,75.7518964 L9.19248624,75.7523988 C9.1879641,76.0337781 9.1065649,76.308623 8.95733675,76.5472969 L8.95680165,76.5523372 Z" id="icon-support"></path>
                </g>
            </g>
        </g>
    </g>
</svg>