<?xml version="1.0" encoding="UTF-8"?>
<svg width="18px" height="13px" viewBox="0 0 18 13" version="1.1" xmlns="http://www.w3.org/2000/svg" xmlns:xlink="http://www.w3.org/1999/xlink">
    <defs></defs>
    <g id="Symbols" stroke="none" stroke-width="1" fill="none" fill-rule="evenodd">
        <g id="Design/Dash/Post-details" transform="translate(-94.000000, -59.000000)" fill-rule="nonzero" fill="#fff">
            <g id="Likes-and-comments" transform="translate(16.000000, 57.000000)">
                <g id="icon-comments" transform="translate(78.223282, 2.000000)">
                    <path d="M15.3142133,3.6455 L8.00234208,3.6455 C7.11405654,3.6455 6.43536927,4.32225 6.43536927,5.208 L6.43536927,9.375 C6.43536927,10.208 7.11405654,10.9375 8.00234208,10.9375 L13.2252505,10.9375 L15.3142133,13.0205 L15.3142133,10.9375 C16.2024988,10.9375 16.8811861,10.208 16.8811861,9.375 L16.8811861,5.208 C16.8811861,4.323225 16.2024988,3.6455 15.3142133,3.6455 Z" id="Shape"></path>
                    <path d="M9.04632204,0 L1.73445086,0 C0.846165315,0 0.167478053,0.67675 0.167478053,1.5625 L0.167478053,5.7295 C0.167478053,6.5625 0.846165315,7.292 1.73445086,7.292 L1.73445086,9.375 L3.82341365,7.292 L5.39038645,7.292 L5.39038645,5.209 C5.39038645,3.751 6.53916555,2.6045 8.00234208,2.6045 L10.6142977,2.6045 L10.6142977,1.5625 C10.6133182,0.67675 9.93463266,0 9.04634711,0 L9.04632204,0 Z" id="Shape"></path>
                </g>
            </g>
        </g>
    </g>
</svg>