<?xml version="1.0" encoding="UTF-8"?>
<svg width="13px" height="13px" viewBox="0 0 13 13" version="1.1" xmlns="http://www.w3.org/2000/svg" xmlns:xlink="http://www.w3.org/1999/xlink">
    <defs></defs>
    <g id="Mobile" stroke="none" stroke-width="1" fill="none" fill-rule="evenodd">
        <g id="M-User-dropdown" transform="translate(-20.000000, -231.000000)" fill-rule="nonzero" fill="#999999">
            <g id="User-Dropdown" transform="translate(0.000000, 50.000000)">
                <g id="Links" transform="translate(20.000000, 172.000000)">
                    <path d="M8.30240388,18.3571393 C7.73636382,18.0550098 8.03849336,17.4889697 8.30240388,17.2250592 C8.64202791,16.8854352 9.05736547,15.7158605 9.05736547,15.7158605 C9.73661354,15.413731 9.81232705,14.9234045 9.88731604,14.5837804 C10.1894456,13.6024028 9.43448399,13.4517003 9.43448399,13.4517003 C9.43448399,13.4517003 10.0380185,11.8292937 9.54769201,10.5840055 C8.90593843,8.96159887 6.30215416,8.35733978 5.84932211,9.86726296 C2.75521131,9.18730847 3.39624035,13.4509758 3.39624035,13.4509758 C3.39624035,13.4509758 2.64127876,13.6016837 2.9434083,14.5830559 C3.01911639,14.9226799 3.09411624,15.4130065 3.77335888,15.715136 C3.77335888,15.715136 4.18869643,16.8847106 4.52832047,17.2243347 C4.79223098,17.4882452 5.09436053,18.0542852 4.52832047,18.3564148 C3.39624035,18.9599493 0,19.1113764 0,21.7526551 L12.8299998,21.7526551 C12.8307075,19.1113764 9.43448399,18.9606739 8.30240388,18.3571393 L8.30240388,18.3571393 Z" id="icon-account"></path>
                </g>
            </g>
        </g>
    </g>
</svg>