<?xml version="1.0" encoding="UTF-8"?>
<svg width="14px" height="14px" viewBox="0 0 14 14" version="1.1" xmlns="http://www.w3.org/2000/svg" xmlns:xlink="http://www.w3.org/1999/xlink">
    <defs></defs>
    <g id="Landing-page" stroke="none" stroke-width="1" fill="none" fill-rule="evenodd">
        <g id="LP-Pricing" transform="translate(-489.000000, -429.000000)" fill-rule="nonzero" fill="#696969">
            <g id="CONTENT" transform="translate(178.000000, 267.000000)">
                <g id="SIDEBAR" transform="translate(0.000000, 136.000000)">
                    <g id="hint-icons" transform="translate(311.000000, 26.000000)">
                        <g id="info">
                            <path d="M7.85552475,10.7507525 L6.00586139,10.7507525 L6.00586139,6.17649505 L7.85552475,6.17649505 L7.85552475,10.7507525 Z M6.93070693,5.4130099 C6.52082574,5.4130099 6.15154455,5.16611089 5.99452277,4.78762574 C5.83750099,4.4086 5.92467386,3.97272871 6.2143505,3.6830396 C6.50402574,3.39336436 6.93991089,3.30673069 7.31838218,3.46375248 C7.69686733,3.62023366 7.94376634,3.99005545 7.94376634,4.39939604 C7.94376634,4.66850099 7.83709881,4.9262396 7.6470495,5.11629307 C7.45699604,5.30634653 7.19925743,5.4130099 6.93069307,5.4130099 L6.93070693,5.4130099 Z" id="Shape"></path>
                            <path d="M11.8319406,2.16805941 C10.5324356,0.868013861 8.76940594,0.138059406 6.93124752,0.138059406 C5.0929505,0.138059406 3.33047525,0.867944554 2.03055446,2.16805941 C0.731049505,3.46756436 0.000554455446,5.23059406 0.000554455446,7.06875248 C0.000554455446,8.9070495 0.730980198,10.6695248 2.03055446,11.9694455 C3.3306,13.2689505 5.09308911,13.9994455 6.93124752,13.9994455 C8.76954455,13.9994455 10.5324356,13.2690198 11.8319406,11.9694455 C13.1374059,10.6726436 13.8710891,8.90857426 13.8710891,7.06875248 C13.8710891,5.22893069 13.1374059,3.46479208 11.8319406,2.16805941 L11.8319406,2.16805941 Z M11.0652396,11.2040198 C9.58165545,12.6475446 7.44506139,13.1993663 5.4481901,12.6540594 C3.45131881,12.1093485 1.89080396,10.5487921 1.34605149,8.55192079 C0.8008,6.5550495 1.35254887,4.41845545 2.79609109,2.93487129 C3.89255446,1.83786733 5.38054653,1.22174257 6.9312198,1.22174257 C8.48244752,1.22174257 9.96991287,1.83792277 11.066903,2.93487129 C12.1633663,4.03133465 12.7790614,5.51877228 12.7785069,7.07 C12.7785069,8.62081188 12.1623267,10.1075842 11.0653782,11.2040198 L11.0652396,11.2040198 Z" id="Shape"></path>
                            <path d="M7.94382178,4.39932673 C7.94382178,4.95920198 7.49062376,5.41294059 6.93074851,5.41294059 C6.37087327,5.41294059 5.91767525,4.95920198 5.91767525,4.39932673 C5.91767525,3.83999208 6.37087327,3.38625347 6.93074851,3.38625347 C7.49062376,3.38625347 7.94382178,3.83999208 7.94382178,4.39932673" id="Shape"></path>
                            <polygon id="Shape" points="6.00586139 6.1780198 7.85663366 6.1780198 7.85663366 10.7506139 6.00586139 10.7506139"></polygon>
                        </g>
                    </g>
                </g>
            </g>
        </g>
    </g>
</svg>