<?xml version="1.0" encoding="UTF-8"?>
<svg width="12px" height="12px" viewBox="0 0 12 12" version="1.1" xmlns="http://www.w3.org/2000/svg" xmlns:xlink="http://www.w3.org/1999/xlink">
    <defs></defs>
    <g id="Landing-page" stroke="none" stroke-width="1" fill="none" fill-rule="evenodd">
        <g id="LP-Features" transform="translate(-402.000000, -2849.000000)" fill="#59B478">
            <g id="Feature:-Search-and-filter" transform="translate(153.000000, 2666.000000)">
                <g id="Filters" transform="translate(249.000000, 181.000000)">
                    <g id="Inputs">
                        <g id="Search">
                            <path d="M8.57632933,9.54716981 L8.03430532,9.54716981 L7.84219554,9.3619211 C8.51457976,8.57975986 8.9193825,7.56432247 8.9193825,6.45969125 C8.9193825,3.99656947 6.92281304,2 4.45969125,2 C1.99656947,2 0,3.99656947 0,6.45969125 C0,8.92281304 1.99656947,10.9193825 4.45969125,10.9193825 C5.56432247,10.9193825 6.57975986,10.5145798 7.3619211,9.84219554 L7.54716981,10.0343053 L7.54716981,10.5763293 L10.9777015,14 L12,12.9777015 L8.57632933,9.54716981 L8.57632933,9.54716981 Z M4.45969125,9.54716981 C2.75128645,9.54716981 1.37221269,8.16809605 1.37221269,6.45969125 C1.37221269,4.75128645 2.75128645,3.37221269 4.45969125,3.37221269 C6.16809605,3.37221269 7.54716981,4.75128645 7.54716981,6.45969125 C7.54716981,8.16809605 6.16809605,9.54716981 4.45969125,9.54716981 L4.45969125,9.54716981 Z" id="search"></path>
                        </g>
                    </g>
                </g>
            </g>
        </g>
    </g>
</svg>